<?xml version="1.0" standalone="no"?>
<!DOCTYPE svg PUBLIC "-//W3C//DTD SVG 20010904//EN"
 "http://www.w3.org/TR/2001/REC-SVG-20010904/DTD/svg10.dtd">
<svg version="1.0" xmlns="http://www.w3.org/2000/svg"
 width="319.595394pt" height="220.706643pt" viewBox="0 0 319.595394 220.706643"
 preserveAspectRatio="xMidYMid meet">
<metadata>
Created by potrace 1.12, written by Peter Selinger 2001-2015
</metadata>
<g transform="translate(-0.277986,220.620960) scale(0.100000,-0.100000)"
fill="#000000" stroke="none">
<path d="M1238 1966 c-197 -132 -363 -246 -369 -252 -8 -9 84 -76 356 -258
202 -135 371 -246 376 -246 12 0 739 490 739 498 0 7 -725 496 -738 498 -4 1
-168 -107 -364 -240z"/>
<path d="M379 1359 c-205 -137 -375 -251 -376 -253 -5 -4 736 -496 747 -496
18 0 740 491 735 500 -3 5 -148 104 -323 221 -174 117 -338 227 -363 245 l-46
33 -374 -250z"/>
<path d="M2080 1358 c-305 -205 -369 -253 -358 -263 26 -25 716 -485 727 -485
10 0 420 271 663 437 l87 60 -373 251 -374 251 -372 -251z"/>
<path d="M1227 754 c-202 -135 -367 -249 -367 -252 0 -4 167 -119 370 -255
l370 -248 369 248 c204 136 370 251 371 255 0 8 -725 498 -738 498 -4 0 -173
-111 -375 -246z"/>
</g>
</svg>
